<svg width="32" height="32" xmlns="http://www.w3.org/2000/svg">

 <g>
  <title>background</title>
  <rect fill="none" id="canvas_background" height="402" width="582" y="-1" x="-1"/>
 </g>
 <g>
  <title>Layer 1</title>
  <rect id="svg_1" width="32" height="32" fill="none"/>
  <path fill="#ffffff" id="svg_2" d="m30,17.349l0,-5.349l-2,0l0,-2l2,0l0,-8l-28,0l0,8l2,0l0,2l-2,0l0,8l2,0l0,2l-2,0l0,8l15.349,0c1.545,1.248 3.51,1.999 5.651,2c4.971,-0.002 8.998,-4.029 9,-9c-0.001,-2.142 -0.752,-4.106 -2,-5.651zm-15.941,4.651l-8.059,0l0,-2l8.522,0c-0.225,0.638 -0.387,1.306 -0.463,2zm11.941,-10l-20,0l0,-2l20,0l0,2zm-22,-6l4,0l0,2l-4,0l0,-2zm0,10l4,0l0,2l-4,0l0,-2zm4,12l-4,0l0,-2l4,0l0,2zm15,1.883c-3.801,-0.009 -6.876,-3.084 -6.885,-6.883c0.009,-3.801 3.084,-6.876 6.885,-6.885c3.799,0.009 6.874,3.084 6.883,6.885c-0.009,3.799 -3.084,6.874 -6.883,6.883z"/>
  <polygon fill="#ffffff" id="svg_3" points="22,19 22,27 26,23  "/>
 </g>
</svg>